<?xml version="1.0" encoding="UTF-8" standalone="no"?>
<!-- Generator: Adobe Illustrator 17.0.1, SVG Export Plug-In . SVG Version: 6.00 Build 0)  -->

<svg
   xmlns:dc="http://purl.org/dc/elements/1.1/"
   xmlns:cc="http://creativecommons.org/ns#"
   xmlns:rdf="http://www.w3.org/1999/02/22-rdf-syntax-ns#"
   xmlns:svg="http://www.w3.org/2000/svg"
   xmlns="http://www.w3.org/2000/svg"
   xmlns:sodipodi="http://sodipodi.sourceforge.net/DTD/sodipodi-0.dtd"
   xmlns:inkscape="http://www.inkscape.org/namespaces/inkscape"
   version="1.1"
   x="0px"
   y="0px"
   width="86px"
   height="86px"
   viewBox="0 0 86 86"
   enable-background="new 0 0 86 86"
   xml:space="preserve"
   id="svg1349"
   sodipodi:docname="harbour-sailify.svg"
   inkscape:version="0.92.5 (2060ec1f9f, 2020-04-08)"><metadata
   id="metadata1355"><rdf:RDF><cc:Work
       rdf:about=""><dc:format>image/svg+xml</dc:format><dc:type
         rdf:resource="http://purl.org/dc/dcmitype/StillImage" /><dc:title></dc:title></cc:Work></rdf:RDF></metadata><defs
   id="defs1353">
	<linearGradient
   y2="0.71710002"
   x2="85.282898"
   y1="73.193497"
   x1="12.8065"
   gradientUnits="userSpaceOnUse"
   id="SVGID_1_">
		<stop
   id="stop1335"
   style="stop-color:#3f5e0e;stop-opacity:1"
   offset="0" />
		<stop
   id="stop1337"
   style="stop-color:#0bb926;stop-opacity:1"
   offset="0.9951" />
	</linearGradient>
	
	
	

		
	</defs><sodipodi:namedview
   pagecolor="#ffffff"
   bordercolor="#666666"
   borderopacity="1"
   objecttolerance="10"
   gridtolerance="10"
   guidetolerance="10"
   inkscape:pageopacity="0"
   inkscape:pageshadow="2"
   inkscape:window-width="1920"
   inkscape:window-height="1144"
   id="namedview1351"
   showgrid="false"
   inkscape:object-paths="true"
   inkscape:zoom="5.4883721"
   inkscape:cx="0.34100806"
   inkscape:cy="21.294551"
   inkscape:window-x="0"
   inkscape:window-y="28"
   inkscape:window-maximized="1"
   inkscape:current-layer="svg1349" />
<g
   id="Layer_2"
   display="none">
</g>
<path
   style="fill:url(#SVGID_1_)"
   inkscape:connector-curvature="0"
   id="path1340"
   d="m 85.699,1.723 c 0,-0.786 -0.637,-1.423 -1.423,-1.423 0,0 -40.641,0 -41.276,0 C 19.417,0.3 0.3,19.417 0.3,43 0.3,66.582 19.417,85.7 43,85.7 66.583,85.7 85.7,66.582 85.7,43 85.7,42.364 85.699,1.723 85.699,1.723 Z" /><path
   style="fill:#000000"
   d="M 43 10.974609 A 32.025002 32.025002 0 0 0 10.974609 43 A 32.025002 32.025002 0 0 0 43 75.025391 A 32.025002 32.025002 0 0 0 75.025391 43 A 32.025002 32.025002 0 0 0 43 10.974609 z M 32.431641 26.521484 C 33.473486 26.526386 34.477666 26.62718 35.441406 26.808594 C 39.296369 27.534247 42.456724 29.406541 45.277344 30.996094 C 48.097963 32.585647 50.553953 33.848092 52.873047 33.970703 C 55.19214 34.093314 57.665981 33.291053 61.101562 29.855469 L 63.929688 32.683594 C 59.990412 36.622868 56.191497 38.153396 52.662109 37.966797 C 49.132722 37.780197 46.165425 36.090181 43.3125 34.482422 C 40.459575 32.874663 37.696259 31.304026 34.701172 30.740234 C 31.706085 30.176443 28.424454 30.488088 24.070312 33.001953 L 22.070312 29.537109 C 25.838204 27.361716 29.306104 26.506774 32.431641 26.521484 z M 32.431641 38.455078 C 33.473486 38.45998 34.477666 38.562727 35.441406 38.744141 C 39.296369 39.469794 42.456724 41.342087 45.277344 42.931641 C 48.097963 44.521194 50.553953 45.783639 52.873047 45.90625 C 55.19214 46.028861 57.66598 45.224648 61.101562 41.789062 L 63.929688 44.617188 C 59.990412 48.556461 56.191497 50.08699 52.662109 49.900391 C 49.132722 49.713791 46.165425 48.023774 43.3125 46.416016 C 40.459575 44.808257 37.696259 43.23762 34.701172 42.673828 C 31.706085 42.110036 28.424454 42.421682 24.070312 44.935547 L 22.070312 41.470703 C 25.838204 39.29531 29.306104 38.440368 32.431641 38.455078 z M 32.431641 50.390625 C 33.473486 50.395527 34.477666 50.496321 35.441406 50.677734 C 39.296369 51.403388 42.456724 53.275681 45.277344 54.865234 C 48.097963 56.454788 50.553953 57.717233 52.873047 57.839844 C 55.19214 57.962455 57.665979 57.158241 61.101562 53.722656 L 63.929688 56.552734 C 59.990413 60.492009 56.191497 62.020584 52.662109 61.833984 C 49.132722 61.647385 46.165425 59.957368 43.3125 58.349609 C 40.459575 56.741851 37.696259 55.173167 34.701172 54.609375 C 31.706085 54.045583 28.424454 54.355276 24.070312 56.869141 L 22.070312 53.40625 C 25.838204 51.230857 29.306104 50.375915 32.431641 50.390625 z "
   id="circle1342" />
<path
   style="color:#000000;font-style:normal;font-variant:normal;font-weight:normal;font-stretch:normal;font-size:medium;line-height:normal;font-family:sans-serif;font-variant-ligatures:normal;font-variant-position:normal;font-variant-caps:normal;font-variant-numeric:normal;font-variant-alternates:normal;font-feature-settings:normal;text-indent:0;text-align:start;text-decoration:none;text-decoration-line:none;text-decoration-style:solid;text-decoration-color:#000000;letter-spacing:normal;word-spacing:normal;text-transform:none;writing-mode:lr-tb;direction:ltr;text-orientation:mixed;dominant-baseline:auto;baseline-shift:baseline;text-anchor:start;white-space:normal;shape-padding:0;clip-rule:nonzero;display:inline;overflow:visible;visibility:visible;opacity:1;isolation:auto;mix-blend-mode:normal;color-interpolation:sRGB;color-interpolation-filters:linearRGB;solid-color:#000000;solid-opacity:1;vector-effect:none;fill:#000000;fill-opacity:1;fill-rule:evenodd;stroke:none;stroke-width:10;stroke-linecap:butt;stroke-linejoin:miter;stroke-miterlimit:4;stroke-dasharray:none;stroke-dashoffset:0;stroke-opacity:1;color-rendering:auto;image-rendering:auto;shape-rendering:auto;text-rendering:auto;enable-background:accumulate"
   d="M 64.972656,0.30078125 V 44.216797 h 10 V 0.30078125 Z"
   id="path1908"
   inkscape:connector-curvature="0" /></svg>